<mxfile host="app.diagrams.net" modified="2023-11-21T15:54:25.785Z" agent="Mozilla/5.0 (Macintosh; Intel Mac OS X 10.15; rv:120.0) Gecko/20100101 Firefox/120.0" etag="T6BUQDEmmegUbQap0tHs" version="22.1.3" type="device">
  <diagram id="R2lEEEUBdFMjLlhIrx00" name="Page-1">
    <mxGraphModel dx="1455" dy="909" grid="1" gridSize="10" guides="1" tooltips="1" connect="1" arrows="1" fold="1" page="1" pageScale="1" pageWidth="3300" pageHeight="4681" math="0" shadow="0" extFonts="Permanent Marker^https://fonts.googleapis.com/css?family=Permanent+Marker">
      <root>
        <mxCell id="0" />
        <mxCell id="1" parent="0" />
        <mxCell id="1GTwUBaE6gafLs46mViq-55" value="Veicoli" style="rounded=0;whiteSpace=wrap;html=1;" parent="1" vertex="1">
          <mxGeometry x="1920" y="1100" width="120" height="60" as="geometry" />
        </mxCell>
        <mxCell id="1GTwUBaE6gafLs46mViq-56" value="" style="endArrow=oval;html=1;rounded=0;exitX=0.5;exitY=0;exitDx=0;exitDy=0;endFill=0;" parent="1" edge="1">
          <mxGeometry width="50" height="50" relative="1" as="geometry">
            <mxPoint x="1950" y="1100" as="sourcePoint" />
            <mxPoint x="1950" y="1070" as="targetPoint" />
          </mxGeometry>
        </mxCell>
        <mxCell id="1GTwUBaE6gafLs46mViq-57" value="&lt;font style=&quot;font-size: 7px;&quot;&gt;Marca&lt;/font&gt;" style="text;html=1;strokeColor=none;fillColor=none;align=center;verticalAlign=middle;whiteSpace=wrap;rounded=0;" parent="1" vertex="1">
          <mxGeometry x="1920" y="1040" width="60" height="30" as="geometry" />
        </mxCell>
        <mxCell id="1GTwUBaE6gafLs46mViq-58" value="" style="endArrow=oval;html=1;rounded=0;exitX=0.417;exitY=0;exitDx=0;exitDy=0;endFill=0;exitPerimeter=0;" parent="1" source="1GTwUBaE6gafLs46mViq-55" target="1GTwUBaE6gafLs46mViq-59" edge="1">
          <mxGeometry width="50" height="50" relative="1" as="geometry">
            <mxPoint x="1970" y="1080" as="sourcePoint" />
            <mxPoint x="1970" y="1030" as="targetPoint" />
          </mxGeometry>
        </mxCell>
        <mxCell id="1GTwUBaE6gafLs46mViq-59" value="&lt;font style=&quot;font-size: 7px;&quot;&gt;Modello&lt;/font&gt;" style="text;html=1;strokeColor=none;fillColor=none;align=center;verticalAlign=middle;whiteSpace=wrap;rounded=0;" parent="1" vertex="1">
          <mxGeometry x="1940" y="1010" width="60" height="30" as="geometry" />
        </mxCell>
        <mxCell id="1GTwUBaE6gafLs46mViq-60" value="" style="endArrow=oval;html=1;rounded=0;exitX=0.5;exitY=0;exitDx=0;exitDy=0;endFill=1;fontColor=#FFFFFF;strokeColor=#000000;labelBackgroundColor=#757575;" parent="1" target="1GTwUBaE6gafLs46mViq-61" edge="1">
          <mxGeometry width="50" height="50" relative="1" as="geometry">
            <mxPoint x="1990" y="1100" as="sourcePoint" />
            <mxPoint x="1990" y="1050" as="targetPoint" />
          </mxGeometry>
        </mxCell>
        <mxCell id="1GTwUBaE6gafLs46mViq-61" value="&lt;font style=&quot;font-size: 7px;&quot;&gt;ID_&lt;font style=&quot;font-size: 7px;&quot;&gt;Autista&lt;/font&gt;&lt;/font&gt;" style="text;html=1;strokeColor=none;fillColor=none;align=center;verticalAlign=middle;whiteSpace=wrap;rounded=0;" parent="1" vertex="1">
          <mxGeometry x="1960" y="1040" width="60" height="30" as="geometry" />
        </mxCell>
        <mxCell id="1GTwUBaE6gafLs46mViq-66" value="" style="endArrow=oval;html=1;rounded=0;exitX=0.417;exitY=0;exitDx=0;exitDy=0;endFill=1;exitPerimeter=0;" parent="1" target="1GTwUBaE6gafLs46mViq-67" edge="1">
          <mxGeometry width="50" height="50" relative="1" as="geometry">
            <mxPoint x="1930" y="1100" as="sourcePoint" />
            <mxPoint x="1930" y="1030" as="targetPoint" />
          </mxGeometry>
        </mxCell>
        <mxCell id="1GTwUBaE6gafLs46mViq-67" value="&lt;div style=&quot;font-size: 7px;&quot;&gt;Targa&lt;/div&gt;" style="text;html=1;strokeColor=none;fillColor=none;align=center;verticalAlign=middle;whiteSpace=wrap;rounded=0;" parent="1" vertex="1">
          <mxGeometry x="1900" y="1010" width="60" height="30" as="geometry" />
        </mxCell>
        <mxCell id="1GTwUBaE6gafLs46mViq-72" value="&lt;font style=&quot;font-size: 8px;&quot;&gt;Guidare&lt;br&gt;&lt;/font&gt;" style="shape=rhombus;perimeter=rhombusPerimeter;whiteSpace=wrap;html=1;align=center;" parent="1" vertex="1">
          <mxGeometry x="1790" y="1110" width="70" height="40" as="geometry" />
        </mxCell>
        <mxCell id="1GTwUBaE6gafLs46mViq-77" value="" style="shape=waypoint;sketch=0;fillStyle=solid;size=6;pointerEvents=1;points=[];fillColor=none;resizable=0;rotatable=0;perimeter=centerPerimeter;snapToPoint=1;strokeColor=#8F8F8F;" parent="1" vertex="1">
          <mxGeometry x="1980" y="1060" width="20" height="20" as="geometry" />
        </mxCell>
        <mxCell id="WVK-Z61vjBoYHEyCaG1b-30" value="" style="endArrow=none;html=1;rounded=0;exitX=1;exitY=0.5;exitDx=0;exitDy=0;entryX=0;entryY=0.5;entryDx=0;entryDy=0;" parent="1" target="1GTwUBaE6gafLs46mViq-72" edge="1">
          <mxGeometry relative="1" as="geometry">
            <mxPoint x="1730" y="1130" as="sourcePoint" />
            <mxPoint x="1940" y="1190" as="targetPoint" />
          </mxGeometry>
        </mxCell>
        <mxCell id="WVK-Z61vjBoYHEyCaG1b-31" value="1,1" style="resizable=0;html=1;whiteSpace=wrap;align=right;verticalAlign=bottom;" parent="WVK-Z61vjBoYHEyCaG1b-30" connectable="0" vertex="1">
          <mxGeometry x="1" relative="1" as="geometry" />
        </mxCell>
        <mxCell id="WVK-Z61vjBoYHEyCaG1b-32" value="" style="endArrow=none;html=1;rounded=0;entryX=0;entryY=0.5;entryDx=0;entryDy=0;" parent="1" target="1GTwUBaE6gafLs46mViq-55" edge="1">
          <mxGeometry relative="1" as="geometry">
            <mxPoint x="1860" y="1130" as="sourcePoint" />
            <mxPoint x="1910" y="1130" as="targetPoint" />
          </mxGeometry>
        </mxCell>
        <mxCell id="WVK-Z61vjBoYHEyCaG1b-33" value="1,1" style="resizable=0;html=1;whiteSpace=wrap;align=right;verticalAlign=bottom;" parent="WVK-Z61vjBoYHEyCaG1b-32" connectable="0" vertex="1">
          <mxGeometry x="1" relative="1" as="geometry">
            <mxPoint x="-40" as="offset" />
          </mxGeometry>
        </mxCell>
        <mxCell id="WVK-Z61vjBoYHEyCaG1b-49" value="Turni" style="rounded=0;whiteSpace=wrap;html=1;" parent="1" vertex="1">
          <mxGeometry x="1489.49" y="1340" width="120" height="60" as="geometry" />
        </mxCell>
        <mxCell id="WVK-Z61vjBoYHEyCaG1b-56" value="" style="endArrow=oval;html=1;rounded=0;exitX=0.417;exitY=0;exitDx=0;exitDy=0;endFill=1;exitPerimeter=0;" parent="1" target="WVK-Z61vjBoYHEyCaG1b-57" edge="1">
          <mxGeometry width="50" height="50" relative="1" as="geometry">
            <mxPoint x="1509.49" y="1340" as="sourcePoint" />
            <mxPoint x="1509.49" y="1270" as="targetPoint" />
          </mxGeometry>
        </mxCell>
        <mxCell id="WVK-Z61vjBoYHEyCaG1b-57" value="&lt;div&gt;&lt;span style=&quot;font-size: 7px;&quot;&gt;ID_Turno&lt;/span&gt;&lt;/div&gt;" style="text;html=1;strokeColor=none;fillColor=none;align=center;verticalAlign=middle;whiteSpace=wrap;rounded=0;" parent="1" vertex="1">
          <mxGeometry x="1479.49" y="1250" width="60" height="30" as="geometry" />
        </mxCell>
        <mxCell id="WVK-Z61vjBoYHEyCaG1b-60" value="Avere" style="shape=rhombus;perimeter=rhombusPerimeter;whiteSpace=wrap;html=1;align=center;" parent="1" vertex="1">
          <mxGeometry x="1635" y="1210" width="70" height="40" as="geometry" />
        </mxCell>
        <mxCell id="WVK-Z61vjBoYHEyCaG1b-72" value="" style="endArrow=none;html=1;rounded=0;exitX=0.5;exitY=1;exitDx=0;exitDy=0;entryX=0.5;entryY=0;entryDx=0;entryDy=0;" parent="1" source="m7EIwp2qNDk-36-i3Lt1-24" target="WVK-Z61vjBoYHEyCaG1b-60" edge="1">
          <mxGeometry relative="1" as="geometry">
            <mxPoint x="1700" y="1160" as="sourcePoint" />
            <mxPoint x="1820" y="1230" as="targetPoint" />
          </mxGeometry>
        </mxCell>
        <mxCell id="WVK-Z61vjBoYHEyCaG1b-73" value="1,1" style="resizable=0;html=1;whiteSpace=wrap;align=right;verticalAlign=bottom;" parent="WVK-Z61vjBoYHEyCaG1b-72" connectable="0" vertex="1">
          <mxGeometry x="1" relative="1" as="geometry" />
        </mxCell>
        <mxCell id="WVK-Z61vjBoYHEyCaG1b-78" value="" style="endArrow=oval;html=1;rounded=0;exitDx=0;exitDy=0;endFill=1;fontColor=#FFFFFF;strokeColor=#000000;labelBackgroundColor=#757575;" parent="1" edge="1">
          <mxGeometry width="50" height="50" relative="1" as="geometry">
            <mxPoint x="1629.49" y="1310" as="sourcePoint" />
            <mxPoint x="1629.49" y="1310" as="targetPoint" />
          </mxGeometry>
        </mxCell>
        <mxCell id="zgEXHdy59-02v655x-aA-15" value="Feedback" style="rounded=0;whiteSpace=wrap;html=1;" parent="1" vertex="1">
          <mxGeometry x="1240" y="1550" width="120" height="60" as="geometry" />
        </mxCell>
        <mxCell id="zgEXHdy59-02v655x-aA-16" value="" style="endArrow=oval;html=1;rounded=0;exitX=0.5;exitY=0;exitDx=0;exitDy=0;endFill=0;" parent="1" target="zgEXHdy59-02v655x-aA-17" edge="1">
          <mxGeometry width="50" height="50" relative="1" as="geometry">
            <mxPoint x="1270" y="1550" as="sourcePoint" />
            <mxPoint x="1270" y="1500" as="targetPoint" />
          </mxGeometry>
        </mxCell>
        <mxCell id="zgEXHdy59-02v655x-aA-17" value="&lt;font style=&quot;font-size: 7px;&quot;&gt;Stelle&lt;/font&gt;" style="text;html=1;strokeColor=none;fillColor=none;align=center;verticalAlign=middle;whiteSpace=wrap;rounded=0;" parent="1" vertex="1">
          <mxGeometry x="1240" y="1490" width="60" height="30" as="geometry" />
        </mxCell>
        <mxCell id="zgEXHdy59-02v655x-aA-18" value="" style="endArrow=oval;html=1;rounded=0;exitX=0.417;exitY=0;exitDx=0;exitDy=0;endFill=0;exitPerimeter=0;" parent="1" source="zgEXHdy59-02v655x-aA-15" target="zgEXHdy59-02v655x-aA-19" edge="1">
          <mxGeometry width="50" height="50" relative="1" as="geometry">
            <mxPoint x="1290" y="1530" as="sourcePoint" />
            <mxPoint x="1290" y="1480" as="targetPoint" />
          </mxGeometry>
        </mxCell>
        <mxCell id="zgEXHdy59-02v655x-aA-19" value="&lt;font style=&quot;font-size: 7px;&quot;&gt;Commento&lt;br&gt;&lt;/font&gt;" style="text;html=1;strokeColor=none;fillColor=none;align=center;verticalAlign=middle;whiteSpace=wrap;rounded=0;" parent="1" vertex="1">
          <mxGeometry x="1260" y="1460" width="60" height="30" as="geometry" />
        </mxCell>
        <mxCell id="zgEXHdy59-02v655x-aA-20" value="" style="endArrow=oval;html=1;rounded=0;exitX=0.5;exitY=0;exitDx=0;exitDy=0;endFill=1;fontColor=#FFFFFF;strokeColor=#000000;labelBackgroundColor=#757575;" parent="1" target="zgEXHdy59-02v655x-aA-21" edge="1">
          <mxGeometry width="50" height="50" relative="1" as="geometry">
            <mxPoint x="1310" y="1550" as="sourcePoint" />
            <mxPoint x="1310" y="1500" as="targetPoint" />
          </mxGeometry>
        </mxCell>
        <mxCell id="zgEXHdy59-02v655x-aA-21" value="&lt;font style=&quot;font-size: 7px;&quot;&gt;ID_Utente&lt;br&gt;&lt;/font&gt;" style="text;html=1;strokeColor=none;fillColor=none;align=center;verticalAlign=middle;whiteSpace=wrap;rounded=0;" parent="1" vertex="1">
          <mxGeometry x="1280" y="1490" width="60" height="30" as="geometry" />
        </mxCell>
        <mxCell id="zgEXHdy59-02v655x-aA-22" value="" style="endArrow=oval;html=1;rounded=0;exitX=0.417;exitY=0;exitDx=0;exitDy=0;endFill=1;exitPerimeter=0;" parent="1" target="zgEXHdy59-02v655x-aA-23" edge="1">
          <mxGeometry width="50" height="50" relative="1" as="geometry">
            <mxPoint x="1250" y="1550" as="sourcePoint" />
            <mxPoint x="1250" y="1480" as="targetPoint" />
          </mxGeometry>
        </mxCell>
        <mxCell id="zgEXHdy59-02v655x-aA-23" value="&lt;font style=&quot;font-size: 7px;&quot;&gt;ID_Feedback&lt;/font&gt;" style="text;html=1;strokeColor=none;fillColor=none;align=center;verticalAlign=middle;whiteSpace=wrap;rounded=0;" parent="1" vertex="1">
          <mxGeometry x="1220" y="1460" width="60" height="30" as="geometry" />
        </mxCell>
        <mxCell id="zgEXHdy59-02v655x-aA-24" value="" style="shape=waypoint;sketch=0;fillStyle=solid;size=6;pointerEvents=1;points=[];fillColor=none;resizable=0;rotatable=0;perimeter=centerPerimeter;snapToPoint=1;strokeColor=#8F8F8F;" parent="1" vertex="1">
          <mxGeometry x="1300" y="1510" width="20" height="20" as="geometry" />
        </mxCell>
        <mxCell id="zgEXHdy59-02v655x-aA-25" value="" style="endArrow=oval;html=1;rounded=0;exitX=0.417;exitY=0;exitDx=0;exitDy=0;endFill=0;exitPerimeter=0;" parent="1" target="zgEXHdy59-02v655x-aA-26" edge="1">
          <mxGeometry width="50" height="50" relative="1" as="geometry">
            <mxPoint x="1330" y="1550" as="sourcePoint" />
            <mxPoint x="1330" y="1480" as="targetPoint" />
          </mxGeometry>
        </mxCell>
        <mxCell id="zgEXHdy59-02v655x-aA-26" value="&lt;font style=&quot;font-size: 7px;&quot;&gt;Data&lt;br&gt;&lt;/font&gt;" style="text;html=1;strokeColor=none;fillColor=none;align=center;verticalAlign=middle;whiteSpace=wrap;rounded=0;" parent="1" vertex="1">
          <mxGeometry x="1300" y="1460" width="60" height="30" as="geometry" />
        </mxCell>
        <mxCell id="VP--jvnIrPfgmcB4H4c5-129" style="edgeStyle=orthogonalEdgeStyle;rounded=0;orthogonalLoop=1;jettySize=auto;html=1;entryX=0.5;entryY=1;entryDx=0;entryDy=0;" parent="1" source="m7EIwp2qNDk-36-i3Lt1-24" target="VP--jvnIrPfgmcB4H4c5-127" edge="1">
          <mxGeometry relative="1" as="geometry" />
        </mxCell>
        <mxCell id="m7EIwp2qNDk-36-i3Lt1-24" value="Autisti" style="rounded=0;whiteSpace=wrap;html=1;" parent="1" vertex="1">
          <mxGeometry x="1610" y="1100" width="120" height="60" as="geometry" />
        </mxCell>
        <mxCell id="m7EIwp2qNDk-36-i3Lt1-33" value="" style="endArrow=oval;html=1;rounded=0;exitX=0.417;exitY=0;exitDx=0;exitDy=0;endFill=1;exitPerimeter=0;" parent="1" target="m7EIwp2qNDk-36-i3Lt1-34" edge="1">
          <mxGeometry width="50" height="50" relative="1" as="geometry">
            <mxPoint x="1620" y="1100" as="sourcePoint" />
            <mxPoint x="1620" y="1030" as="targetPoint" />
          </mxGeometry>
        </mxCell>
        <mxCell id="m7EIwp2qNDk-36-i3Lt1-34" value="&lt;span style=&quot;font-size: 7px;&quot;&gt;ID_Autista&lt;/span&gt;" style="text;html=1;strokeColor=none;fillColor=none;align=center;verticalAlign=middle;whiteSpace=wrap;rounded=0;" parent="1" vertex="1">
          <mxGeometry x="1590" y="1010" width="60" height="30" as="geometry" />
        </mxCell>
        <mxCell id="m7EIwp2qNDk-36-i3Lt1-37" value="&lt;div&gt;Utenti&lt;/div&gt;" style="rounded=0;whiteSpace=wrap;html=1;" parent="1" vertex="1">
          <mxGeometry x="2140" y="1450" width="120" height="60" as="geometry" />
        </mxCell>
        <mxCell id="m7EIwp2qNDk-36-i3Lt1-38" value="" style="endArrow=oval;html=1;rounded=0;exitX=0.5;exitY=0;exitDx=0;exitDy=0;endFill=0;" parent="1" target="m7EIwp2qNDk-36-i3Lt1-39" edge="1">
          <mxGeometry width="50" height="50" relative="1" as="geometry">
            <mxPoint x="2170" y="1450" as="sourcePoint" />
            <mxPoint x="2170" y="1400" as="targetPoint" />
          </mxGeometry>
        </mxCell>
        <mxCell id="m7EIwp2qNDk-36-i3Lt1-39" value="&lt;font style=&quot;font-size: 7px;&quot;&gt;Nome&lt;/font&gt;" style="text;html=1;strokeColor=none;fillColor=none;align=center;verticalAlign=middle;whiteSpace=wrap;rounded=0;" parent="1" vertex="1">
          <mxGeometry x="2140" y="1390" width="60" height="30" as="geometry" />
        </mxCell>
        <mxCell id="m7EIwp2qNDk-36-i3Lt1-40" value="" style="endArrow=oval;html=1;rounded=0;exitX=0.417;exitY=0;exitDx=0;exitDy=0;endFill=0;exitPerimeter=0;" parent="1" source="m7EIwp2qNDk-36-i3Lt1-37" target="m7EIwp2qNDk-36-i3Lt1-41" edge="1">
          <mxGeometry width="50" height="50" relative="1" as="geometry">
            <mxPoint x="2190" y="1430" as="sourcePoint" />
            <mxPoint x="2190" y="1380" as="targetPoint" />
          </mxGeometry>
        </mxCell>
        <mxCell id="m7EIwp2qNDk-36-i3Lt1-41" value="&lt;div style=&quot;font-size: 7px;&quot;&gt;Cognome&lt;/div&gt;" style="text;html=1;strokeColor=none;fillColor=none;align=center;verticalAlign=middle;whiteSpace=wrap;rounded=0;" parent="1" vertex="1">
          <mxGeometry x="2160" y="1360" width="60" height="30" as="geometry" />
        </mxCell>
        <mxCell id="m7EIwp2qNDk-36-i3Lt1-42" value="" style="endArrow=oval;html=1;rounded=0;exitX=0.5;exitY=0;exitDx=0;exitDy=0;endFill=0;" parent="1" target="m7EIwp2qNDk-36-i3Lt1-43" edge="1">
          <mxGeometry width="50" height="50" relative="1" as="geometry">
            <mxPoint x="2210" y="1450" as="sourcePoint" />
            <mxPoint x="2210" y="1400" as="targetPoint" />
          </mxGeometry>
        </mxCell>
        <mxCell id="m7EIwp2qNDk-36-i3Lt1-43" value="&lt;font style=&quot;font-size: 7px;&quot;&gt;Email&lt;/font&gt;" style="text;html=1;strokeColor=none;fillColor=none;align=center;verticalAlign=middle;whiteSpace=wrap;rounded=0;" parent="1" vertex="1">
          <mxGeometry x="2180" y="1390" width="60" height="30" as="geometry" />
        </mxCell>
        <mxCell id="m7EIwp2qNDk-36-i3Lt1-44" value="" style="endArrow=oval;html=1;rounded=0;exitX=0.417;exitY=0;exitDx=0;exitDy=0;endFill=0;exitPerimeter=0;" parent="1" target="m7EIwp2qNDk-36-i3Lt1-45" edge="1">
          <mxGeometry width="50" height="50" relative="1" as="geometry">
            <mxPoint x="2230" y="1450" as="sourcePoint" />
            <mxPoint x="2230" y="1380" as="targetPoint" />
          </mxGeometry>
        </mxCell>
        <mxCell id="m7EIwp2qNDk-36-i3Lt1-45" value="&lt;div style=&quot;font-size: 7px;&quot;&gt;Psw&lt;br&gt;&lt;/div&gt;" style="text;html=1;strokeColor=none;fillColor=none;align=center;verticalAlign=middle;whiteSpace=wrap;rounded=0;" parent="1" vertex="1">
          <mxGeometry x="2200" y="1360" width="60" height="30" as="geometry" />
        </mxCell>
        <mxCell id="m7EIwp2qNDk-36-i3Lt1-46" value="" style="endArrow=oval;html=1;rounded=0;exitX=0.417;exitY=0;exitDx=0;exitDy=0;endFill=1;exitPerimeter=0;" parent="1" target="m7EIwp2qNDk-36-i3Lt1-47" edge="1">
          <mxGeometry width="50" height="50" relative="1" as="geometry">
            <mxPoint x="2150" y="1450" as="sourcePoint" />
            <mxPoint x="2150" y="1380" as="targetPoint" />
          </mxGeometry>
        </mxCell>
        <mxCell id="m7EIwp2qNDk-36-i3Lt1-47" value="&lt;div style=&quot;font-size: 7px;&quot;&gt;ID_utente&lt;/div&gt;" style="text;html=1;strokeColor=none;fillColor=none;align=center;verticalAlign=middle;whiteSpace=wrap;rounded=0;" parent="1" vertex="1">
          <mxGeometry x="2120" y="1360" width="60" height="30" as="geometry" />
        </mxCell>
        <mxCell id="VP--jvnIrPfgmcB4H4c5-1" value="" style="endArrow=oval;html=1;rounded=0;exitX=0.5;exitY=0;exitDx=0;exitDy=0;endFill=0;" parent="1" target="VP--jvnIrPfgmcB4H4c5-2" edge="1">
          <mxGeometry width="50" height="50" relative="1" as="geometry">
            <mxPoint x="1650" y="1100" as="sourcePoint" />
            <mxPoint x="1650" y="1050" as="targetPoint" />
          </mxGeometry>
        </mxCell>
        <mxCell id="VP--jvnIrPfgmcB4H4c5-2" value="&lt;font style=&quot;font-size: 7px;&quot;&gt;Numero patente&lt;/font&gt;" style="text;html=1;strokeColor=none;fillColor=none;align=center;verticalAlign=middle;whiteSpace=wrap;rounded=0;" parent="1" vertex="1">
          <mxGeometry x="1620" y="1040" width="60" height="30" as="geometry" />
        </mxCell>
        <mxCell id="VP--jvnIrPfgmcB4H4c5-6" value="" style="endArrow=oval;html=1;rounded=0;exitX=0.5;exitY=0;exitDx=0;exitDy=0;endFill=0;" parent="1" target="VP--jvnIrPfgmcB4H4c5-7" edge="1">
          <mxGeometry width="50" height="50" relative="1" as="geometry">
            <mxPoint x="1529.49" y="1340" as="sourcePoint" />
            <mxPoint x="1529.49" y="1290" as="targetPoint" />
          </mxGeometry>
        </mxCell>
        <mxCell id="VP--jvnIrPfgmcB4H4c5-7" value="&lt;font style=&quot;font-size: 7px;&quot;&gt;Orario inizio&lt;/font&gt;" style="text;html=1;strokeColor=none;fillColor=none;align=center;verticalAlign=middle;whiteSpace=wrap;rounded=0;" parent="1" vertex="1">
          <mxGeometry x="1499.49" y="1280" width="60" height="30" as="geometry" />
        </mxCell>
        <mxCell id="VP--jvnIrPfgmcB4H4c5-8" value="" style="endArrow=oval;html=1;rounded=0;exitX=0.417;exitY=0;exitDx=0;exitDy=0;endFill=0;exitPerimeter=0;" parent="1" target="VP--jvnIrPfgmcB4H4c5-9" edge="1">
          <mxGeometry width="50" height="50" relative="1" as="geometry">
            <mxPoint x="1549.49" y="1340" as="sourcePoint" />
            <mxPoint x="1549.49" y="1270" as="targetPoint" />
          </mxGeometry>
        </mxCell>
        <mxCell id="VP--jvnIrPfgmcB4H4c5-9" value="&lt;div style=&quot;font-size: 7px;&quot;&gt;Orario fine&lt;/div&gt;" style="text;html=1;strokeColor=none;fillColor=none;align=center;verticalAlign=middle;whiteSpace=wrap;rounded=0;" parent="1" vertex="1">
          <mxGeometry x="1519.49" y="1250" width="60" height="30" as="geometry" />
        </mxCell>
        <mxCell id="VP--jvnIrPfgmcB4H4c5-10" value="" style="endArrow=oval;html=1;rounded=0;exitX=0.5;exitY=0;exitDx=0;exitDy=0;endFill=1;fontColor=#FFFFFF;strokeColor=#000000;labelBackgroundColor=#757575;" parent="1" target="VP--jvnIrPfgmcB4H4c5-11" edge="1">
          <mxGeometry width="50" height="50" relative="1" as="geometry">
            <mxPoint x="1569.49" y="1340" as="sourcePoint" />
            <mxPoint x="1569.49" y="1290" as="targetPoint" />
          </mxGeometry>
        </mxCell>
        <mxCell id="VP--jvnIrPfgmcB4H4c5-11" value="&lt;font style=&quot;font-size: 7px;&quot;&gt;ID_&lt;font style=&quot;font-size: 7px;&quot;&gt;Autista&lt;/font&gt;&lt;/font&gt;" style="text;html=1;strokeColor=none;fillColor=none;align=center;verticalAlign=middle;whiteSpace=wrap;rounded=0;" parent="1" vertex="1">
          <mxGeometry x="1539.49" y="1280" width="60" height="30" as="geometry" />
        </mxCell>
        <mxCell id="VP--jvnIrPfgmcB4H4c5-12" value="" style="shape=waypoint;sketch=0;fillStyle=solid;size=6;pointerEvents=1;points=[];fillColor=none;resizable=0;rotatable=0;perimeter=centerPerimeter;snapToPoint=1;strokeColor=#8F8F8F;" parent="1" vertex="1">
          <mxGeometry x="1559.49" y="1300" width="20" height="20" as="geometry" />
        </mxCell>
        <mxCell id="VP--jvnIrPfgmcB4H4c5-13" value="" style="endArrow=oval;html=1;rounded=0;exitX=0.5;exitY=0;exitDx=0;exitDy=0;endFill=0;" parent="1" target="VP--jvnIrPfgmcB4H4c5-14" edge="1">
          <mxGeometry width="50" height="50" relative="1" as="geometry">
            <mxPoint x="2250" y="1450" as="sourcePoint" />
            <mxPoint x="2250" y="1400" as="targetPoint" />
          </mxGeometry>
        </mxCell>
        <mxCell id="VP--jvnIrPfgmcB4H4c5-14" value="&lt;font style=&quot;font-size: 6px;&quot;&gt;Abbonamento&lt;/font&gt;" style="text;html=1;strokeColor=none;fillColor=none;align=center;verticalAlign=middle;whiteSpace=wrap;rounded=0;" parent="1" vertex="1">
          <mxGeometry x="2220" y="1390" width="60" height="30" as="geometry" />
        </mxCell>
        <mxCell id="VP--jvnIrPfgmcB4H4c5-20" value="" style="endArrow=none;html=1;rounded=0;exitX=0.5;exitY=1;exitDx=0;exitDy=0;entryX=1;entryY=0.5;entryDx=0;entryDy=0;" parent="1" source="WVK-Z61vjBoYHEyCaG1b-60" target="WVK-Z61vjBoYHEyCaG1b-49" edge="1">
          <mxGeometry relative="1" as="geometry">
            <mxPoint x="1699.8600000000001" y="1260" as="sourcePoint" />
            <mxPoint x="1699.8600000000001" y="1320" as="targetPoint" />
            <Array as="points">
              <mxPoint x="1670" y="1320" />
              <mxPoint x="1670" y="1370" />
            </Array>
          </mxGeometry>
        </mxCell>
        <mxCell id="VP--jvnIrPfgmcB4H4c5-21" value="1,1" style="resizable=0;html=1;whiteSpace=wrap;align=right;verticalAlign=bottom;" parent="VP--jvnIrPfgmcB4H4c5-20" connectable="0" vertex="1">
          <mxGeometry x="1" relative="1" as="geometry">
            <mxPoint x="61" y="-55" as="offset" />
          </mxGeometry>
        </mxCell>
        <mxCell id="VP--jvnIrPfgmcB4H4c5-58" value="Carta" style="rounded=0;whiteSpace=wrap;html=1;" parent="1" vertex="1">
          <mxGeometry x="1940" y="1590" width="120" height="60" as="geometry" />
        </mxCell>
        <mxCell id="VP--jvnIrPfgmcB4H4c5-59" value="" style="endArrow=oval;html=1;rounded=0;exitX=0.417;exitY=0;exitDx=0;exitDy=0;endFill=1;exitPerimeter=0;" parent="1" target="VP--jvnIrPfgmcB4H4c5-60" edge="1">
          <mxGeometry width="50" height="50" relative="1" as="geometry">
            <mxPoint x="1950" y="1590" as="sourcePoint" />
            <mxPoint x="1950" y="1520" as="targetPoint" />
          </mxGeometry>
        </mxCell>
        <mxCell id="VP--jvnIrPfgmcB4H4c5-60" value="&lt;font style=&quot;font-size: 7px;&quot;&gt;Numero Carta&lt;br&gt;&lt;/font&gt;" style="text;html=1;strokeColor=none;fillColor=none;align=center;verticalAlign=middle;whiteSpace=wrap;rounded=0;" parent="1" vertex="1">
          <mxGeometry x="1920" y="1500" width="60" height="30" as="geometry" />
        </mxCell>
        <mxCell id="VP--jvnIrPfgmcB4H4c5-63" value="" style="endArrow=oval;html=1;rounded=0;endFill=0;fontColor=#FFFFFF;strokeColor=#000000;labelBackgroundColor=#757575;" parent="1" target="VP--jvnIrPfgmcB4H4c5-64" edge="1">
          <mxGeometry width="50" height="50" relative="1" as="geometry">
            <mxPoint x="1990" y="1590" as="sourcePoint" />
            <mxPoint x="1990" y="1510" as="targetPoint" />
          </mxGeometry>
        </mxCell>
        <mxCell id="VP--jvnIrPfgmcB4H4c5-64" value="&lt;span style=&quot;font-size: 7px;&quot;&gt;CVV&lt;/span&gt;" style="text;html=1;strokeColor=none;fillColor=none;align=center;verticalAlign=middle;whiteSpace=wrap;rounded=0;" parent="1" vertex="1">
          <mxGeometry x="1960" y="1500" width="60" height="30" as="geometry" />
        </mxCell>
        <mxCell id="VP--jvnIrPfgmcB4H4c5-65" value="" style="endArrow=oval;html=1;rounded=0;exitX=0.5;exitY=0;exitDx=0;exitDy=0;endFill=0;" parent="1" edge="1">
          <mxGeometry width="50" height="50" relative="1" as="geometry">
            <mxPoint x="1970" y="1590" as="sourcePoint" />
            <mxPoint x="1970" y="1560" as="targetPoint" />
          </mxGeometry>
        </mxCell>
        <mxCell id="VP--jvnIrPfgmcB4H4c5-66" value="&lt;font style=&quot;font-size: 5px;&quot;&gt;Data Scadenza&amp;nbsp;&lt;/font&gt;" style="text;html=1;strokeColor=none;fillColor=none;align=center;verticalAlign=middle;whiteSpace=wrap;rounded=0;" parent="1" vertex="1">
          <mxGeometry x="1940" y="1530" width="60" height="30" as="geometry" />
        </mxCell>
        <mxCell id="VP--jvnIrPfgmcB4H4c5-91" value="" style="endArrow=oval;html=1;rounded=0;exitX=0.5;exitY=0;exitDx=0;exitDy=0;endFill=1;fontColor=#FFFFFF;strokeColor=#000000;labelBackgroundColor=#757575;" parent="1" target="VP--jvnIrPfgmcB4H4c5-92" edge="1">
          <mxGeometry width="50" height="50" relative="1" as="geometry">
            <mxPoint x="2010" y="1590" as="sourcePoint" />
            <mxPoint x="2010" y="1540" as="targetPoint" />
          </mxGeometry>
        </mxCell>
        <mxCell id="VP--jvnIrPfgmcB4H4c5-92" value="&lt;font style=&quot;font-size: 7px;&quot;&gt;ID_Utente&lt;br&gt;&lt;/font&gt;" style="text;html=1;strokeColor=none;fillColor=none;align=center;verticalAlign=middle;whiteSpace=wrap;rounded=0;" parent="1" vertex="1">
          <mxGeometry x="1980" y="1530" width="60" height="30" as="geometry" />
        </mxCell>
        <mxCell id="VP--jvnIrPfgmcB4H4c5-93" value="" style="shape=waypoint;sketch=0;fillStyle=solid;size=6;pointerEvents=1;points=[];fillColor=none;resizable=0;rotatable=0;perimeter=centerPerimeter;snapToPoint=1;strokeColor=#8F8F8F;" parent="1" vertex="1">
          <mxGeometry x="2000" y="1550" width="20" height="20" as="geometry" />
        </mxCell>
        <mxCell id="VP--jvnIrPfgmcB4H4c5-94" value="" style="endArrow=none;html=1;rounded=0;" parent="1" edge="1">
          <mxGeometry relative="1" as="geometry">
            <mxPoint x="2060" y="1610" as="sourcePoint" />
            <mxPoint x="2120" y="1609.8200000000002" as="targetPoint" />
          </mxGeometry>
        </mxCell>
        <mxCell id="VP--jvnIrPfgmcB4H4c5-95" value="" style="resizable=0;html=1;whiteSpace=wrap;align=right;verticalAlign=bottom;" parent="VP--jvnIrPfgmcB4H4c5-94" connectable="0" vertex="1">
          <mxGeometry x="1" relative="1" as="geometry" />
        </mxCell>
        <mxCell id="VP--jvnIrPfgmcB4H4c5-96" value="&lt;div style=&quot;font-size: 11px;&quot; align=&quot;center&quot;&gt;&lt;font style=&quot;font-size: 8px;&quot;&gt;Possedere&lt;/font&gt;&lt;/div&gt;" style="rhombus;whiteSpace=wrap;html=1;align=center;" parent="1" vertex="1">
          <mxGeometry x="2120" y="1590" width="60" height="40" as="geometry" />
        </mxCell>
        <mxCell id="VP--jvnIrPfgmcB4H4c5-97" value="" style="endArrow=none;html=1;rounded=0;entryX=0.5;entryY=1;entryDx=0;entryDy=0;" parent="1" target="m7EIwp2qNDk-36-i3Lt1-37" edge="1">
          <mxGeometry relative="1" as="geometry">
            <mxPoint x="2180" y="1609.8200000000002" as="sourcePoint" />
            <mxPoint x="2300" y="1609.8200000000002" as="targetPoint" />
            <Array as="points">
              <mxPoint x="2200" y="1610" />
            </Array>
          </mxGeometry>
        </mxCell>
        <mxCell id="VP--jvnIrPfgmcB4H4c5-98" value="N,1" style="resizable=0;html=1;whiteSpace=wrap;align=right;verticalAlign=bottom;" parent="VP--jvnIrPfgmcB4H4c5-97" connectable="0" vertex="1">
          <mxGeometry x="1" relative="1" as="geometry">
            <mxPoint y="100" as="offset" />
          </mxGeometry>
        </mxCell>
        <mxCell id="VP--jvnIrPfgmcB4H4c5-99" value="1,1" style="resizable=0;html=1;whiteSpace=wrap;align=right;verticalAlign=bottom;" parent="1" connectable="0" vertex="1">
          <mxGeometry x="2120" y="1610.0008099835982" as="geometry" />
        </mxCell>
        <mxCell id="VP--jvnIrPfgmcB4H4c5-100" value="Transazione" style="rounded=0;whiteSpace=wrap;html=1;" parent="1" vertex="1">
          <mxGeometry x="1800" y="1840" width="120" height="60" as="geometry" />
        </mxCell>
        <mxCell id="VP--jvnIrPfgmcB4H4c5-101" value="" style="endArrow=oval;html=1;rounded=0;exitX=0.417;exitY=0;exitDx=0;exitDy=0;endFill=1;exitPerimeter=0;" parent="1" target="VP--jvnIrPfgmcB4H4c5-102" edge="1">
          <mxGeometry width="50" height="50" relative="1" as="geometry">
            <mxPoint x="1810" y="1840" as="sourcePoint" />
            <mxPoint x="1810" y="1770" as="targetPoint" />
          </mxGeometry>
        </mxCell>
        <mxCell id="VP--jvnIrPfgmcB4H4c5-102" value="&lt;font style=&quot;font-size: 7px;&quot;&gt;ID_Transizione&lt;br&gt;&lt;/font&gt;" style="text;html=1;strokeColor=none;fillColor=none;align=center;verticalAlign=middle;whiteSpace=wrap;rounded=0;" parent="1" vertex="1">
          <mxGeometry x="1780" y="1750" width="60" height="30" as="geometry" />
        </mxCell>
        <mxCell id="VP--jvnIrPfgmcB4H4c5-107" value="" style="endArrow=oval;html=1;rounded=0;exitX=0.5;exitY=0;exitDx=0;exitDy=0;endFill=1;fontColor=#FFFFFF;strokeColor=#000000;labelBackgroundColor=#757575;" parent="1" target="VP--jvnIrPfgmcB4H4c5-108" edge="1">
          <mxGeometry width="50" height="50" relative="1" as="geometry">
            <mxPoint x="1840" y="1840" as="sourcePoint" />
            <mxPoint x="1840" y="1790" as="targetPoint" />
          </mxGeometry>
        </mxCell>
        <mxCell id="VP--jvnIrPfgmcB4H4c5-108" value="&lt;font style=&quot;font-size: 7px;&quot;&gt;Numero carta&lt;br&gt;&lt;/font&gt;" style="text;html=1;strokeColor=none;fillColor=none;align=center;verticalAlign=middle;whiteSpace=wrap;rounded=0;" parent="1" vertex="1">
          <mxGeometry x="1810" y="1780" width="60" height="30" as="geometry" />
        </mxCell>
        <mxCell id="VP--jvnIrPfgmcB4H4c5-109" value="" style="shape=waypoint;sketch=0;fillStyle=solid;size=6;pointerEvents=1;points=[];fillColor=none;resizable=0;rotatable=0;perimeter=centerPerimeter;snapToPoint=1;strokeColor=#8F8F8F;" parent="1" vertex="1">
          <mxGeometry x="1830" y="1800" width="20" height="20" as="geometry" />
        </mxCell>
        <mxCell id="VP--jvnIrPfgmcB4H4c5-112" value="&lt;font style=&quot;font-size: 7px;&quot;&gt;Effettua Transazione&lt;/font&gt;" style="rhombus;whiteSpace=wrap;html=1;align=center;" parent="1" vertex="1">
          <mxGeometry x="1940" y="1710" width="60" height="40" as="geometry" />
        </mxCell>
        <mxCell id="VP--jvnIrPfgmcB4H4c5-113" value="" style="endArrow=none;html=1;rounded=0;entryX=0.5;entryY=0;entryDx=0;entryDy=0;exitX=0.25;exitY=1;exitDx=0;exitDy=0;" parent="1" target="VP--jvnIrPfgmcB4H4c5-112" edge="1" source="VP--jvnIrPfgmcB4H4c5-58">
          <mxGeometry relative="1" as="geometry">
            <mxPoint x="2060" y="1640" as="sourcePoint" />
            <mxPoint x="2220" y="1640" as="targetPoint" />
            <Array as="points" />
          </mxGeometry>
        </mxCell>
        <mxCell id="VP--jvnIrPfgmcB4H4c5-114" value="1,1" style="resizable=0;html=1;whiteSpace=wrap;align=right;verticalAlign=bottom;" parent="VP--jvnIrPfgmcB4H4c5-113" connectable="0" vertex="1">
          <mxGeometry x="1" relative="1" as="geometry" />
        </mxCell>
        <mxCell id="VP--jvnIrPfgmcB4H4c5-116" value="Manutentori" style="rounded=0;whiteSpace=wrap;html=1;" parent="1" vertex="1">
          <mxGeometry x="1369.49" y="1100" width="120" height="60" as="geometry" />
        </mxCell>
        <mxCell id="VP--jvnIrPfgmcB4H4c5-121" value="" style="endArrow=oval;html=1;rounded=0;exitX=0.417;exitY=0;exitDx=0;exitDy=0;endFill=1;exitPerimeter=0;" parent="1" target="VP--jvnIrPfgmcB4H4c5-122" edge="1">
          <mxGeometry width="50" height="50" relative="1" as="geometry">
            <mxPoint x="1379.49" y="1100" as="sourcePoint" />
            <mxPoint x="1379.49" y="1030" as="targetPoint" />
          </mxGeometry>
        </mxCell>
        <mxCell id="VP--jvnIrPfgmcB4H4c5-122" value="&lt;font style=&quot;font-size: 7px;&quot;&gt;ID_Manutentore&lt;/font&gt;" style="text;html=1;strokeColor=none;fillColor=none;align=center;verticalAlign=middle;whiteSpace=wrap;rounded=0;" parent="1" vertex="1">
          <mxGeometry x="1349.49" y="1010" width="60" height="30" as="geometry" />
        </mxCell>
        <mxCell id="VP--jvnIrPfgmcB4H4c5-127" value="Personale" style="ellipse;shape=doubleEllipse;whiteSpace=wrap;html=1;" parent="1" vertex="1">
          <mxGeometry x="1490" y="890" width="100" height="60" as="geometry" />
        </mxCell>
        <mxCell id="VP--jvnIrPfgmcB4H4c5-128" style="edgeStyle=orthogonalEdgeStyle;rounded=0;orthogonalLoop=1;jettySize=auto;html=1;entryX=0.419;entryY=1.03;entryDx=0;entryDy=0;entryPerimeter=0;" parent="1" source="VP--jvnIrPfgmcB4H4c5-116" target="VP--jvnIrPfgmcB4H4c5-127" edge="1">
          <mxGeometry relative="1" as="geometry" />
        </mxCell>
        <mxCell id="VP--jvnIrPfgmcB4H4c5-131" value="" style="endArrow=oval;html=1;rounded=0;exitX=0;exitY=0;exitDx=0;exitDy=0;endFill=0;entryX=0.5;entryY=1;entryDx=0;entryDy=0;" parent="1" source="VP--jvnIrPfgmcB4H4c5-127" target="VP--jvnIrPfgmcB4H4c5-132" edge="1">
          <mxGeometry width="50" height="50" relative="1" as="geometry">
            <mxPoint x="1444.6446609406726" y="899.3967965644035" as="sourcePoint" />
            <mxPoint x="1480" y="880" as="targetPoint" />
          </mxGeometry>
        </mxCell>
        <mxCell id="VP--jvnIrPfgmcB4H4c5-132" value="&lt;font style=&quot;font-size: 7px;&quot;&gt;Nome&lt;/font&gt;" style="text;html=1;strokeColor=none;fillColor=none;align=center;verticalAlign=middle;whiteSpace=wrap;rounded=0;rotation=-45;" parent="1" vertex="1">
          <mxGeometry x="1439.49" y="850" width="60" height="30" as="geometry" />
        </mxCell>
        <mxCell id="VP--jvnIrPfgmcB4H4c5-135" value="" style="endArrow=oval;html=1;rounded=0;exitX=0.662;exitY=0.021;exitDx=0;exitDy=0;endFill=0;exitPerimeter=0;" parent="1" source="VP--jvnIrPfgmcB4H4c5-127" target="VP--jvnIrPfgmcB4H4c5-136" edge="1">
          <mxGeometry width="50" height="50" relative="1" as="geometry">
            <mxPoint x="1565.3553390593272" y="889.9967965644038" as="sourcePoint" />
            <mxPoint x="1579.49" y="831.21" as="targetPoint" />
          </mxGeometry>
        </mxCell>
        <mxCell id="VP--jvnIrPfgmcB4H4c5-136" value="&lt;span style=&quot;font-size: 7px;&quot;&gt;DDN&lt;br&gt;&lt;/span&gt;" style="text;html=1;strokeColor=none;fillColor=none;align=center;verticalAlign=middle;whiteSpace=wrap;rounded=0;rotation=30;" parent="1" vertex="1">
          <mxGeometry x="1549.49" y="821.21" width="60" height="30" as="geometry" />
        </mxCell>
        <mxCell id="VP--jvnIrPfgmcB4H4c5-137" value="" style="endArrow=oval;html=1;rounded=0;exitX=0.5;exitY=0;exitDx=0;exitDy=0;endFill=0;" parent="1" target="VP--jvnIrPfgmcB4H4c5-138" edge="1">
          <mxGeometry width="50" height="50" relative="1" as="geometry">
            <mxPoint x="1399.49" y="1100" as="sourcePoint" />
            <mxPoint x="1399.49" y="1050" as="targetPoint" />
          </mxGeometry>
        </mxCell>
        <mxCell id="VP--jvnIrPfgmcB4H4c5-138" value="&lt;span style=&quot;font-size: 7px;&quot;&gt;Qualifica&lt;br&gt;&lt;/span&gt;" style="text;html=1;strokeColor=none;fillColor=none;align=center;verticalAlign=middle;whiteSpace=wrap;rounded=0;" parent="1" vertex="1">
          <mxGeometry x="1369.49" y="1040" width="60" height="30" as="geometry" />
        </mxCell>
        <mxCell id="VP--jvnIrPfgmcB4H4c5-139" value="" style="endArrow=oval;html=1;rounded=0;exitX=1;exitY=0;exitDx=0;exitDy=0;endFill=0;entryX=0.5;entryY=1;entryDx=0;entryDy=0;" parent="1" target="VP--jvnIrPfgmcB4H4c5-140" edge="1">
          <mxGeometry width="50" height="50" relative="1" as="geometry">
            <mxPoint x="1575.3553390593272" y="898.8967965644038" as="sourcePoint" />
            <mxPoint x="1605" y="841.11" as="targetPoint" />
          </mxGeometry>
        </mxCell>
        <mxCell id="VP--jvnIrPfgmcB4H4c5-140" value="&lt;font style=&quot;font-size: 5px;&quot;&gt;Numero Telefono&lt;/font&gt;" style="text;html=1;strokeColor=none;fillColor=none;align=center;verticalAlign=middle;whiteSpace=wrap;rounded=0;rotation=30;" parent="1" vertex="1">
          <mxGeometry x="1579.49" y="831.11" width="60" height="30" as="geometry" />
        </mxCell>
        <mxCell id="VP--jvnIrPfgmcB4H4c5-141" value="" style="endArrow=oval;html=1;rounded=0;exitX=0.97;exitY=0.327;exitDx=0;exitDy=0;endFill=0;exitPerimeter=0;" parent="1" source="VP--jvnIrPfgmcB4H4c5-127" target="VP--jvnIrPfgmcB4H4c5-142" edge="1">
          <mxGeometry width="50" height="50" relative="1" as="geometry">
            <mxPoint x="1635.51" y="930.11" as="sourcePoint" />
            <mxPoint x="1620" y="871.11" as="targetPoint" />
          </mxGeometry>
        </mxCell>
        <mxCell id="VP--jvnIrPfgmcB4H4c5-142" value="&lt;font style=&quot;font-size: 7px;&quot;&gt;Email&lt;/font&gt;" style="text;html=1;strokeColor=none;fillColor=none;align=center;verticalAlign=middle;whiteSpace=wrap;rounded=0;rotation=45;" parent="1" vertex="1">
          <mxGeometry x="1590" y="861.11" width="60" height="30" as="geometry" />
        </mxCell>
        <mxCell id="VP--jvnIrPfgmcB4H4c5-143" value="" style="endArrow=oval;html=1;rounded=0;exitX=0.417;exitY=0;exitDx=0;exitDy=0;endFill=1;exitPerimeter=0;" parent="1" target="VP--jvnIrPfgmcB4H4c5-144" edge="1">
          <mxGeometry width="50" height="50" relative="1" as="geometry">
            <mxPoint x="1539.49" y="890" as="sourcePoint" />
            <mxPoint x="1539.49" y="820" as="targetPoint" />
          </mxGeometry>
        </mxCell>
        <mxCell id="VP--jvnIrPfgmcB4H4c5-144" value="&lt;font style=&quot;font-size: 7px;&quot;&gt;ID_Personale&lt;/font&gt;" style="text;html=1;strokeColor=none;fillColor=none;align=center;verticalAlign=middle;whiteSpace=wrap;rounded=0;" parent="1" vertex="1">
          <mxGeometry x="1509.49" y="800" width="60" height="30" as="geometry" />
        </mxCell>
        <mxCell id="VP--jvnIrPfgmcB4H4c5-145" value="" style="endArrow=oval;html=1;rounded=0;exitX=0.348;exitY=0.021;exitDx=0;exitDy=0;endFill=0;entryX=0.5;entryY=1;entryDx=0;entryDy=0;exitPerimeter=0;" parent="1" source="VP--jvnIrPfgmcB4H4c5-127" target="VP--jvnIrPfgmcB4H4c5-146" edge="1">
          <mxGeometry width="50" height="50" relative="1" as="geometry">
            <mxPoint x="1535.51" y="880" as="sourcePoint" />
            <mxPoint x="1510.51" y="861" as="targetPoint" />
          </mxGeometry>
        </mxCell>
        <mxCell id="VP--jvnIrPfgmcB4H4c5-146" value="&lt;font style=&quot;font-size: 7px;&quot;&gt;Cognome&lt;/font&gt;" style="text;html=1;strokeColor=none;fillColor=none;align=center;verticalAlign=middle;whiteSpace=wrap;rounded=0;rotation=-30;" parent="1" vertex="1">
          <mxGeometry x="1470" y="831" width="60" height="30" as="geometry" />
        </mxCell>
        <mxCell id="VP--jvnIrPfgmcB4H4c5-147" value="&lt;font style=&quot;font-size: 6px;&quot;&gt;Comunicare Guasto&lt;/font&gt;" style="shape=rhombus;perimeter=rhombusPerimeter;whiteSpace=wrap;html=1;align=center;" parent="1" vertex="1">
          <mxGeometry x="1499.49" y="1190" width="70" height="40" as="geometry" />
        </mxCell>
        <mxCell id="VP--jvnIrPfgmcB4H4c5-148" value="" style="endArrow=none;html=1;rounded=0;exitX=0.25;exitY=1;exitDx=0;exitDy=0;" parent="1" source="m7EIwp2qNDk-36-i3Lt1-24" edge="1">
          <mxGeometry relative="1" as="geometry">
            <mxPoint x="1410" y="1210" as="sourcePoint" />
            <mxPoint x="1570" y="1210" as="targetPoint" />
            <Array as="points">
              <mxPoint x="1640" y="1210" />
            </Array>
          </mxGeometry>
        </mxCell>
        <mxCell id="VP--jvnIrPfgmcB4H4c5-149" value="1,1" style="resizable=0;html=1;whiteSpace=wrap;align=right;verticalAlign=bottom;" parent="VP--jvnIrPfgmcB4H4c5-148" connectable="0" vertex="1">
          <mxGeometry x="1" relative="1" as="geometry">
            <mxPoint x="9" as="offset" />
          </mxGeometry>
        </mxCell>
        <mxCell id="VP--jvnIrPfgmcB4H4c5-150" value="" style="endArrow=none;html=1;rounded=0;exitX=0.75;exitY=1;exitDx=0;exitDy=0;entryX=0;entryY=0.5;entryDx=0;entryDy=0;" parent="1" source="VP--jvnIrPfgmcB4H4c5-116" target="VP--jvnIrPfgmcB4H4c5-147" edge="1">
          <mxGeometry relative="1" as="geometry">
            <mxPoint x="1434.49" y="1170" as="sourcePoint" />
            <mxPoint x="1364.49" y="1220" as="targetPoint" />
            <Array as="points">
              <mxPoint x="1460" y="1210" />
            </Array>
          </mxGeometry>
        </mxCell>
        <mxCell id="VP--jvnIrPfgmcB4H4c5-151" value="1,1" style="resizable=0;html=1;whiteSpace=wrap;align=right;verticalAlign=bottom;" parent="VP--jvnIrPfgmcB4H4c5-150" connectable="0" vertex="1">
          <mxGeometry x="1" relative="1" as="geometry" />
        </mxCell>
        <mxCell id="VP--jvnIrPfgmcB4H4c5-152" value="Offerte" style="rounded=0;whiteSpace=wrap;html=1;" parent="1" vertex="1">
          <mxGeometry x="2230" y="950" width="120" height="60" as="geometry" />
        </mxCell>
        <mxCell id="VP--jvnIrPfgmcB4H4c5-153" value="" style="endArrow=oval;html=1;rounded=0;exitX=0.417;exitY=0;exitDx=0;exitDy=0;endFill=1;exitPerimeter=0;" parent="1" target="VP--jvnIrPfgmcB4H4c5-154" edge="1">
          <mxGeometry width="50" height="50" relative="1" as="geometry">
            <mxPoint x="2240" y="950" as="sourcePoint" />
            <mxPoint x="2240" y="880" as="targetPoint" />
          </mxGeometry>
        </mxCell>
        <mxCell id="VP--jvnIrPfgmcB4H4c5-154" value="&lt;font style=&quot;font-size: 7px;&quot;&gt;ID_Offerta&lt;br&gt;&lt;/font&gt;" style="text;html=1;strokeColor=none;fillColor=none;align=center;verticalAlign=middle;whiteSpace=wrap;rounded=0;" parent="1" vertex="1">
          <mxGeometry x="2210" y="860" width="60" height="30" as="geometry" />
        </mxCell>
        <mxCell id="VP--jvnIrPfgmcB4H4c5-155" value="" style="endArrow=oval;html=1;rounded=0;exitX=0.5;exitY=0;exitDx=0;exitDy=0;endFill=0;fontColor=#FFFFFF;strokeColor=#000000;labelBackgroundColor=#757575;" parent="1" target="VP--jvnIrPfgmcB4H4c5-156" edge="1">
          <mxGeometry width="50" height="50" relative="1" as="geometry">
            <mxPoint x="2260" y="950" as="sourcePoint" />
            <mxPoint x="2260" y="900" as="targetPoint" />
          </mxGeometry>
        </mxCell>
        <mxCell id="VP--jvnIrPfgmcB4H4c5-156" value="&lt;font style=&quot;font-size: 7px;&quot;&gt;Promo Code&lt;br&gt;&lt;/font&gt;" style="text;html=1;strokeColor=none;fillColor=none;align=center;verticalAlign=middle;whiteSpace=wrap;rounded=0;" parent="1" vertex="1">
          <mxGeometry x="2230" y="890" width="60" height="30" as="geometry" />
        </mxCell>
        <mxCell id="VP--jvnIrPfgmcB4H4c5-158" value="" style="endArrow=oval;html=1;rounded=0;exitX=0.417;exitY=0;exitDx=0;exitDy=0;endFill=0;exitPerimeter=0;" parent="1" target="VP--jvnIrPfgmcB4H4c5-159" edge="1">
          <mxGeometry width="50" height="50" relative="1" as="geometry">
            <mxPoint x="2280" y="950" as="sourcePoint" />
            <mxPoint x="2280" y="880" as="targetPoint" />
          </mxGeometry>
        </mxCell>
        <mxCell id="VP--jvnIrPfgmcB4H4c5-159" value="&lt;font style=&quot;font-size: 7px;&quot;&gt;Info Offerta&lt;/font&gt;" style="text;html=1;strokeColor=none;fillColor=none;align=center;verticalAlign=middle;whiteSpace=wrap;rounded=0;" parent="1" vertex="1">
          <mxGeometry x="2250" y="860" width="60" height="30" as="geometry" />
        </mxCell>
        <mxCell id="VP--jvnIrPfgmcB4H4c5-160" value="" style="endArrow=none;html=1;rounded=0;exitX=1;exitY=0.25;exitDx=0;exitDy=0;entryX=0.5;entryY=1;entryDx=0;entryDy=0;" parent="1" source="m7EIwp2qNDk-36-i3Lt1-37" target="VP--jvnIrPfgmcB4H4c5-163" edge="1">
          <mxGeometry relative="1" as="geometry">
            <mxPoint x="2230" y="1529.4299999999998" as="sourcePoint" />
            <mxPoint x="2310" y="1250" as="targetPoint" />
            <Array as="points">
              <mxPoint x="2320" y="1465" />
            </Array>
          </mxGeometry>
        </mxCell>
        <mxCell id="VP--jvnIrPfgmcB4H4c5-161" value="1" style="resizable=0;html=1;whiteSpace=wrap;align=right;verticalAlign=bottom;" parent="VP--jvnIrPfgmcB4H4c5-160" connectable="0" vertex="1">
          <mxGeometry x="1" relative="1" as="geometry" />
        </mxCell>
        <mxCell id="VP--jvnIrPfgmcB4H4c5-163" value="&lt;div style=&quot;font-size: 11px;&quot; align=&quot;center&quot;&gt;&lt;font style=&quot;font-size: 8px;&quot;&gt;Avere&lt;/font&gt;&lt;/div&gt;" style="rhombus;whiteSpace=wrap;html=1;align=center;" parent="1" vertex="1">
          <mxGeometry x="2290" y="1160" width="60" height="40" as="geometry" />
        </mxCell>
        <mxCell id="VP--jvnIrPfgmcB4H4c5-165" value="" style="endArrow=none;html=1;rounded=0;exitX=0.5;exitY=0;exitDx=0;exitDy=0;entryX=0.75;entryY=1;entryDx=0;entryDy=0;" parent="1" source="VP--jvnIrPfgmcB4H4c5-163" target="VP--jvnIrPfgmcB4H4c5-152" edge="1">
          <mxGeometry relative="1" as="geometry">
            <mxPoint x="2330" y="1140" as="sourcePoint" />
            <mxPoint x="2490" y="1140" as="targetPoint" />
          </mxGeometry>
        </mxCell>
        <mxCell id="VP--jvnIrPfgmcB4H4c5-166" value="1,N" style="resizable=0;html=1;whiteSpace=wrap;align=right;verticalAlign=bottom;" parent="VP--jvnIrPfgmcB4H4c5-165" connectable="0" vertex="1">
          <mxGeometry x="1" relative="1" as="geometry">
            <mxPoint y="210" as="offset" />
          </mxGeometry>
        </mxCell>
        <mxCell id="VP--jvnIrPfgmcB4H4c5-168" value="0,1" style="resizable=0;html=1;whiteSpace=wrap;align=right;verticalAlign=bottom;" parent="1" connectable="0" vertex="1">
          <mxGeometry x="2320" y="1160" as="geometry" />
        </mxCell>
        <mxCell id="VP--jvnIrPfgmcB4H4c5-169" value="Addetti Marketing" style="rounded=0;whiteSpace=wrap;html=1;" parent="1" vertex="1">
          <mxGeometry x="1790" y="950" width="120" height="60" as="geometry" />
        </mxCell>
        <mxCell id="VP--jvnIrPfgmcB4H4c5-170" value="" style="endArrow=oval;html=1;rounded=0;exitX=0.25;exitY=0;exitDx=0;exitDy=0;endFill=1;" parent="1" target="VP--jvnIrPfgmcB4H4c5-171" edge="1" source="VP--jvnIrPfgmcB4H4c5-169">
          <mxGeometry width="50" height="50" relative="1" as="geometry">
            <mxPoint x="1760" y="950" as="sourcePoint" />
            <mxPoint x="1760" y="880" as="targetPoint" />
          </mxGeometry>
        </mxCell>
        <mxCell id="VP--jvnIrPfgmcB4H4c5-171" value="&lt;font style=&quot;font-size: 7px;&quot;&gt;ID_Addetto&lt;br&gt;&lt;/font&gt;" style="text;html=1;strokeColor=none;fillColor=none;align=center;verticalAlign=middle;whiteSpace=wrap;rounded=0;" parent="1" vertex="1">
          <mxGeometry x="1790" y="860" width="60" height="30" as="geometry" />
        </mxCell>
        <mxCell id="VP--jvnIrPfgmcB4H4c5-179" value="&lt;div style=&quot;font-size: 11px;&quot; align=&quot;center&quot;&gt;&lt;font style=&quot;font-size: 8px;&quot;&gt;Aggiungere&lt;/font&gt;&lt;/div&gt;" style="rhombus;whiteSpace=wrap;html=1;align=center;" parent="1" vertex="1">
          <mxGeometry x="2050" y="960" width="60" height="40" as="geometry" />
        </mxCell>
        <mxCell id="VP--jvnIrPfgmcB4H4c5-180" value="" style="endArrow=none;html=1;rounded=0;exitX=1;exitY=0.5;exitDx=0;exitDy=0;" parent="1" source="VP--jvnIrPfgmcB4H4c5-169" edge="1">
          <mxGeometry relative="1" as="geometry">
            <mxPoint x="1910" y="979.8299999999999" as="sourcePoint" />
            <mxPoint x="2050" y="980" as="targetPoint" />
          </mxGeometry>
        </mxCell>
        <mxCell id="VP--jvnIrPfgmcB4H4c5-181" value="1,N" style="resizable=0;html=1;whiteSpace=wrap;align=right;verticalAlign=bottom;" parent="VP--jvnIrPfgmcB4H4c5-180" connectable="0" vertex="1">
          <mxGeometry x="1" relative="1" as="geometry" />
        </mxCell>
        <mxCell id="VP--jvnIrPfgmcB4H4c5-182" value="" style="endArrow=none;html=1;rounded=0;" parent="1" edge="1">
          <mxGeometry relative="1" as="geometry">
            <mxPoint x="2110" y="979.8299999999999" as="sourcePoint" />
            <mxPoint x="2230" y="980" as="targetPoint" />
          </mxGeometry>
        </mxCell>
        <mxCell id="VP--jvnIrPfgmcB4H4c5-183" value="1,0" style="resizable=0;html=1;whiteSpace=wrap;align=right;verticalAlign=bottom;" parent="VP--jvnIrPfgmcB4H4c5-182" connectable="0" vertex="1">
          <mxGeometry x="1" relative="1" as="geometry">
            <mxPoint x="-100" as="offset" />
          </mxGeometry>
        </mxCell>
        <mxCell id="yZXDlxgTFXs7Cdc_VBDP-3" style="edgeStyle=orthogonalEdgeStyle;rounded=0;orthogonalLoop=1;jettySize=auto;html=1;entryX=0.6;entryY=1;entryDx=0;entryDy=0;entryPerimeter=0;" edge="1" parent="1" source="VP--jvnIrPfgmcB4H4c5-169" target="VP--jvnIrPfgmcB4H4c5-127">
          <mxGeometry relative="1" as="geometry" />
        </mxCell>
        <mxCell id="yZXDlxgTFXs7Cdc_VBDP-4" value="Admin" style="rounded=0;whiteSpace=wrap;html=1;" vertex="1" parent="1">
          <mxGeometry x="1210" y="950" width="120" height="60" as="geometry" />
        </mxCell>
        <mxCell id="yZXDlxgTFXs7Cdc_VBDP-5" value="" style="endArrow=oval;html=1;rounded=0;exitX=0.417;exitY=0;exitDx=0;exitDy=0;endFill=1;exitPerimeter=0;" edge="1" parent="1" target="yZXDlxgTFXs7Cdc_VBDP-6">
          <mxGeometry width="50" height="50" relative="1" as="geometry">
            <mxPoint x="1220" y="950" as="sourcePoint" />
            <mxPoint x="1220" y="880" as="targetPoint" />
          </mxGeometry>
        </mxCell>
        <mxCell id="yZXDlxgTFXs7Cdc_VBDP-6" value="&lt;font style=&quot;font-size: 7px;&quot;&gt;ID_Admin&lt;br&gt;&lt;/font&gt;" style="text;html=1;strokeColor=none;fillColor=none;align=center;verticalAlign=middle;whiteSpace=wrap;rounded=0;" vertex="1" parent="1">
          <mxGeometry x="1190" y="860" width="60" height="30" as="geometry" />
        </mxCell>
        <mxCell id="yZXDlxgTFXs7Cdc_VBDP-7" style="edgeStyle=orthogonalEdgeStyle;rounded=0;orthogonalLoop=1;jettySize=auto;html=1;entryX=0.305;entryY=1.008;entryDx=0;entryDy=0;entryPerimeter=0;" edge="1" parent="1" source="yZXDlxgTFXs7Cdc_VBDP-4" target="VP--jvnIrPfgmcB4H4c5-127">
          <mxGeometry relative="1" as="geometry" />
        </mxCell>
        <mxCell id="yZXDlxgTFXs7Cdc_VBDP-12" value="" style="endArrow=oval;html=1;rounded=0;exitX=0;exitY=0;exitDx=0;exitDy=0;endFill=0;entryX=0.5;entryY=1;entryDx=0;entryDy=0;" edge="1" parent="1" source="yZXDlxgTFXs7Cdc_VBDP-26" target="yZXDlxgTFXs7Cdc_VBDP-13">
          <mxGeometry width="50" height="50" relative="1" as="geometry">
            <mxPoint x="1844.49" y="1320" as="sourcePoint" />
            <mxPoint x="1844.49" y="1290" as="targetPoint" />
          </mxGeometry>
        </mxCell>
        <mxCell id="yZXDlxgTFXs7Cdc_VBDP-13" value="&lt;font style=&quot;font-size: 7px;&quot;&gt;Pick Up&lt;/font&gt;" style="text;html=1;strokeColor=none;fillColor=none;align=center;verticalAlign=middle;whiteSpace=wrap;rounded=0;rotation=-15;" vertex="1" parent="1">
          <mxGeometry x="1804.49" y="1260" width="60" height="30" as="geometry" />
        </mxCell>
        <mxCell id="yZXDlxgTFXs7Cdc_VBDP-14" value="" style="endArrow=oval;html=1;rounded=0;exitX=0.347;exitY=0.025;exitDx=0;exitDy=0;endFill=0;exitPerimeter=0;" edge="1" parent="1" source="yZXDlxgTFXs7Cdc_VBDP-26" target="yZXDlxgTFXs7Cdc_VBDP-15">
          <mxGeometry width="50" height="50" relative="1" as="geometry">
            <mxPoint x="1864.53" y="1320" as="sourcePoint" />
            <mxPoint x="1864.49" y="1250" as="targetPoint" />
          </mxGeometry>
        </mxCell>
        <mxCell id="yZXDlxgTFXs7Cdc_VBDP-15" value="&lt;font style=&quot;font-size: 7px;&quot;&gt;Drop Off&lt;/font&gt;" style="text;html=1;strokeColor=none;fillColor=none;align=center;verticalAlign=middle;whiteSpace=wrap;rounded=0;" vertex="1" parent="1">
          <mxGeometry x="1834.49" y="1230" width="60" height="30" as="geometry" />
        </mxCell>
        <mxCell id="yZXDlxgTFXs7Cdc_VBDP-16" value="" style="endArrow=oval;html=1;rounded=0;exitDx=0;exitDy=0;endFill=1;fontColor=#FFFFFF;strokeColor=#000000;labelBackgroundColor=#757575;" edge="1" parent="1" target="yZXDlxgTFXs7Cdc_VBDP-17" source="yZXDlxgTFXs7Cdc_VBDP-20">
          <mxGeometry width="50" height="50" relative="1" as="geometry">
            <mxPoint x="1884.49" y="1320" as="sourcePoint" />
            <mxPoint x="1884.49" y="1270" as="targetPoint" />
          </mxGeometry>
        </mxCell>
        <mxCell id="yZXDlxgTFXs7Cdc_VBDP-17" value="&lt;font style=&quot;font-size: 7px;&quot;&gt;ID_&lt;font style=&quot;font-size: 7px;&quot;&gt;Autista&lt;/font&gt;&lt;/font&gt;" style="text;html=1;strokeColor=none;fillColor=none;align=center;verticalAlign=middle;whiteSpace=wrap;rounded=0;" vertex="1" parent="1">
          <mxGeometry x="1854.49" y="1260" width="60" height="30" as="geometry" />
        </mxCell>
        <mxCell id="yZXDlxgTFXs7Cdc_VBDP-18" value="" style="endArrow=oval;html=1;rounded=0;exitX=0.049;exitY=0.281;exitDx=0;exitDy=0;endFill=1;exitPerimeter=0;" edge="1" parent="1" target="yZXDlxgTFXs7Cdc_VBDP-19" source="yZXDlxgTFXs7Cdc_VBDP-26">
          <mxGeometry width="50" height="50" relative="1" as="geometry">
            <mxPoint x="1824.1346609406728" y="1354.3967965644038" as="sourcePoint" />
            <mxPoint x="1794.49" y="1285.6100000000001" as="targetPoint" />
          </mxGeometry>
        </mxCell>
        <mxCell id="yZXDlxgTFXs7Cdc_VBDP-19" value="&lt;font style=&quot;font-size: 7px;&quot;&gt;ID_Richiesta&lt;/font&gt;" style="text;html=1;strokeColor=none;fillColor=none;align=center;verticalAlign=middle;whiteSpace=wrap;rounded=0;rotation=-30;" vertex="1" parent="1">
          <mxGeometry x="1764.49" y="1265.6100000000001" width="60" height="30" as="geometry" />
        </mxCell>
        <mxCell id="yZXDlxgTFXs7Cdc_VBDP-21" value="" style="endArrow=oval;html=1;rounded=0;endFill=1;fontColor=#FFFFFF;strokeColor=#000000;labelBackgroundColor=#757575;exitX=0.666;exitY=0.021;exitDx=0;exitDy=0;exitPerimeter=0;" edge="1" parent="1" source="yZXDlxgTFXs7Cdc_VBDP-26">
          <mxGeometry width="50" height="50" relative="1" as="geometry">
            <mxPoint x="1904" y="1320" as="sourcePoint" />
            <mxPoint x="1905" y="1260" as="targetPoint" />
          </mxGeometry>
        </mxCell>
        <mxCell id="yZXDlxgTFXs7Cdc_VBDP-22" value="&lt;font style=&quot;font-size: 7px;&quot;&gt;ID_Utente&lt;/font&gt;" style="text;html=1;strokeColor=none;fillColor=none;align=center;verticalAlign=middle;whiteSpace=wrap;rounded=0;" vertex="1" parent="1">
          <mxGeometry x="1875" y="1230" width="60" height="30" as="geometry" />
        </mxCell>
        <mxCell id="yZXDlxgTFXs7Cdc_VBDP-23" value="" style="shape=waypoint;sketch=0;fillStyle=solid;size=6;pointerEvents=1;points=[];fillColor=none;resizable=0;rotatable=0;perimeter=centerPerimeter;snapToPoint=1;strokeColor=#8F8F8F;" vertex="1" parent="1">
          <mxGeometry x="1895" y="1250" width="20" height="20" as="geometry" />
        </mxCell>
        <mxCell id="yZXDlxgTFXs7Cdc_VBDP-24" value="" style="endArrow=oval;html=1;rounded=0;exitX=1;exitY=0;exitDx=0;exitDy=0;endFill=0;" edge="1" parent="1" source="yZXDlxgTFXs7Cdc_VBDP-26">
          <mxGeometry width="50" height="50" relative="1" as="geometry">
            <mxPoint x="1925" y="1320" as="sourcePoint" />
            <mxPoint x="1925" y="1290" as="targetPoint" />
          </mxGeometry>
        </mxCell>
        <mxCell id="yZXDlxgTFXs7Cdc_VBDP-25" value="&lt;font style=&quot;font-size: 7px;&quot;&gt;Orario richiesta&lt;/font&gt;" style="text;html=1;strokeColor=none;fillColor=none;align=center;verticalAlign=middle;whiteSpace=wrap;rounded=0;rotation=15;" vertex="1" parent="1">
          <mxGeometry x="1910" y="1265.6100000000001" width="60" height="30" as="geometry" />
        </mxCell>
        <mxCell id="yZXDlxgTFXs7Cdc_VBDP-26" value="Richiesta Prenotazione" style="ellipse;shape=doubleEllipse;whiteSpace=wrap;html=1;" vertex="1" parent="1">
          <mxGeometry x="1830" y="1330" width="100" height="60" as="geometry" />
        </mxCell>
        <mxCell id="yZXDlxgTFXs7Cdc_VBDP-29" value="" style="endArrow=oval;html=1;rounded=0;exitX=0.5;exitY=0;exitDx=0;exitDy=0;endFill=1;fontColor=#FFFFFF;strokeColor=#000000;labelBackgroundColor=#757575;" edge="1" parent="1" source="yZXDlxgTFXs7Cdc_VBDP-26" target="yZXDlxgTFXs7Cdc_VBDP-20">
          <mxGeometry width="50" height="50" relative="1" as="geometry">
            <mxPoint x="1880" y="1330" as="sourcePoint" />
            <mxPoint x="1883" y="1290" as="targetPoint" />
          </mxGeometry>
        </mxCell>
        <mxCell id="yZXDlxgTFXs7Cdc_VBDP-20" value="" style="shape=waypoint;sketch=0;fillStyle=solid;size=6;pointerEvents=1;points=[];fillColor=none;resizable=0;rotatable=0;perimeter=centerPerimeter;snapToPoint=1;strokeColor=#8F8F8F;" vertex="1" parent="1">
          <mxGeometry x="1870" y="1280" width="20" height="20" as="geometry" />
        </mxCell>
        <mxCell id="yZXDlxgTFXs7Cdc_VBDP-32" value="&lt;font style=&quot;font-size: 9px;&quot;&gt;Effettua richiesta&lt;/font&gt;" style="shape=rhombus;perimeter=rhombusPerimeter;whiteSpace=wrap;html=1;align=center;" vertex="1" parent="1">
          <mxGeometry x="1990" y="1335" width="80" height="50" as="geometry" />
        </mxCell>
        <mxCell id="yZXDlxgTFXs7Cdc_VBDP-33" value="" style="endArrow=none;html=1;rounded=0;exitX=1;exitY=0.5;exitDx=0;exitDy=0;entryX=0;entryY=0.5;entryDx=0;entryDy=0;" edge="1" parent="1" source="yZXDlxgTFXs7Cdc_VBDP-26" target="yZXDlxgTFXs7Cdc_VBDP-32">
          <mxGeometry relative="1" as="geometry">
            <mxPoint x="1930" y="1370" as="sourcePoint" />
            <mxPoint x="2090" y="1370" as="targetPoint" />
            <Array as="points">
              <mxPoint x="1960" y="1360" />
            </Array>
          </mxGeometry>
        </mxCell>
        <mxCell id="yZXDlxgTFXs7Cdc_VBDP-34" value="1,1" style="resizable=0;html=1;whiteSpace=wrap;align=right;verticalAlign=bottom;" connectable="0" vertex="1" parent="yZXDlxgTFXs7Cdc_VBDP-33">
          <mxGeometry x="1" relative="1" as="geometry" />
        </mxCell>
        <mxCell id="yZXDlxgTFXs7Cdc_VBDP-35" value="" style="endArrow=none;html=1;rounded=0;entryX=1;entryY=0.5;entryDx=0;entryDy=0;exitX=0;exitY=0.25;exitDx=0;exitDy=0;" edge="1" parent="1" source="m7EIwp2qNDk-36-i3Lt1-37" target="yZXDlxgTFXs7Cdc_VBDP-32">
          <mxGeometry relative="1" as="geometry">
            <mxPoint x="1960" y="1440" as="sourcePoint" />
            <mxPoint x="2120" y="1440" as="targetPoint" />
            <Array as="points">
              <mxPoint x="2090" y="1465" />
              <mxPoint x="2090" y="1360" />
            </Array>
          </mxGeometry>
        </mxCell>
        <mxCell id="yZXDlxgTFXs7Cdc_VBDP-36" value="1,N" style="resizable=0;html=1;whiteSpace=wrap;align=right;verticalAlign=bottom;" connectable="0" vertex="1" parent="yZXDlxgTFXs7Cdc_VBDP-35">
          <mxGeometry x="1" relative="1" as="geometry">
            <mxPoint x="20" as="offset" />
          </mxGeometry>
        </mxCell>
        <mxCell id="yZXDlxgTFXs7Cdc_VBDP-37" value="&lt;font style=&quot;font-size: 9px;&quot;&gt;Assegnato a&lt;/font&gt;" style="shape=rhombus;perimeter=rhombusPerimeter;whiteSpace=wrap;html=1;align=center;" vertex="1" parent="1">
          <mxGeometry x="1730" y="1190" width="70" height="40" as="geometry" />
        </mxCell>
        <mxCell id="yZXDlxgTFXs7Cdc_VBDP-38" value="" style="endArrow=none;html=1;rounded=0;entryX=0;entryY=0.5;entryDx=0;entryDy=0;exitX=0.75;exitY=1;exitDx=0;exitDy=0;" edge="1" parent="1" source="m7EIwp2qNDk-36-i3Lt1-24" target="yZXDlxgTFXs7Cdc_VBDP-37">
          <mxGeometry relative="1" as="geometry">
            <mxPoint x="1690" y="1180" as="sourcePoint" />
            <mxPoint x="1850" y="1180" as="targetPoint" />
            <Array as="points">
              <mxPoint x="1700" y="1210" />
            </Array>
          </mxGeometry>
        </mxCell>
        <mxCell id="yZXDlxgTFXs7Cdc_VBDP-39" value="1,1" style="resizable=0;html=1;whiteSpace=wrap;align=right;verticalAlign=bottom;" connectable="0" vertex="1" parent="yZXDlxgTFXs7Cdc_VBDP-38">
          <mxGeometry x="1" relative="1" as="geometry" />
        </mxCell>
        <mxCell id="yZXDlxgTFXs7Cdc_VBDP-40" value="" style="endArrow=none;html=1;rounded=0;exitX=0.5;exitY=1;exitDx=0;exitDy=0;entryX=0;entryY=0.5;entryDx=0;entryDy=0;" edge="1" parent="1" source="yZXDlxgTFXs7Cdc_VBDP-37" target="yZXDlxgTFXs7Cdc_VBDP-26">
          <mxGeometry relative="1" as="geometry">
            <mxPoint x="1710" y="1240" as="sourcePoint" />
            <mxPoint x="1870" y="1240" as="targetPoint" />
            <Array as="points">
              <mxPoint x="1765" y="1360" />
            </Array>
          </mxGeometry>
        </mxCell>
        <mxCell id="yZXDlxgTFXs7Cdc_VBDP-41" value="1,1" style="resizable=0;html=1;whiteSpace=wrap;align=right;verticalAlign=bottom;" connectable="0" vertex="1" parent="yZXDlxgTFXs7Cdc_VBDP-40">
          <mxGeometry x="1" relative="1" as="geometry">
            <mxPoint x="-40" y="-115" as="offset" />
          </mxGeometry>
        </mxCell>
        <mxCell id="yZXDlxgTFXs7Cdc_VBDP-61" style="edgeStyle=orthogonalEdgeStyle;rounded=0;orthogonalLoop=1;jettySize=auto;html=1;entryX=0;entryY=1;entryDx=0;entryDy=0;" edge="1" parent="1" source="yZXDlxgTFXs7Cdc_VBDP-42" target="yZXDlxgTFXs7Cdc_VBDP-26">
          <mxGeometry relative="1" as="geometry" />
        </mxCell>
        <mxCell id="yZXDlxgTFXs7Cdc_VBDP-42" value="Tratte Complete" style="rounded=0;whiteSpace=wrap;html=1;" vertex="1" parent="1">
          <mxGeometry x="1590" y="1550" width="120" height="60" as="geometry" />
        </mxCell>
        <mxCell id="yZXDlxgTFXs7Cdc_VBDP-43" value="" style="endArrow=oval;html=1;rounded=0;exitX=0.417;exitY=0;exitDx=0;exitDy=0;endFill=1;exitPerimeter=0;" edge="1" parent="1" target="yZXDlxgTFXs7Cdc_VBDP-44">
          <mxGeometry width="50" height="50" relative="1" as="geometry">
            <mxPoint x="1600" y="1550" as="sourcePoint" />
            <mxPoint x="1600" y="1480" as="targetPoint" />
          </mxGeometry>
        </mxCell>
        <mxCell id="yZXDlxgTFXs7Cdc_VBDP-44" value="&lt;font style=&quot;font-size: 7px;&quot;&gt;ID_Tratta&lt;br&gt;&lt;/font&gt;" style="text;html=1;strokeColor=none;fillColor=none;align=center;verticalAlign=middle;whiteSpace=wrap;rounded=0;" vertex="1" parent="1">
          <mxGeometry x="1570" y="1460" width="60" height="30" as="geometry" />
        </mxCell>
        <mxCell id="yZXDlxgTFXs7Cdc_VBDP-45" value="" style="endArrow=oval;html=1;rounded=0;exitX=0.5;exitY=0;exitDx=0;exitDy=0;endFill=1;fontColor=#FFFFFF;strokeColor=#000000;labelBackgroundColor=#757575;" edge="1" parent="1" target="yZXDlxgTFXs7Cdc_VBDP-46">
          <mxGeometry width="50" height="50" relative="1" as="geometry">
            <mxPoint x="1630" y="1550" as="sourcePoint" />
            <mxPoint x="1630" y="1500" as="targetPoint" />
          </mxGeometry>
        </mxCell>
        <mxCell id="yZXDlxgTFXs7Cdc_VBDP-46" value="&lt;font style=&quot;font-size: 7px;&quot;&gt;ID_Richiesta&lt;/font&gt;" style="text;html=1;strokeColor=none;fillColor=none;align=center;verticalAlign=middle;whiteSpace=wrap;rounded=0;" vertex="1" parent="1">
          <mxGeometry x="1600" y="1490" width="60" height="30" as="geometry" />
        </mxCell>
        <mxCell id="yZXDlxgTFXs7Cdc_VBDP-47" value="" style="shape=waypoint;sketch=0;fillStyle=solid;size=6;pointerEvents=1;points=[];fillColor=none;resizable=0;rotatable=0;perimeter=centerPerimeter;snapToPoint=1;strokeColor=#8F8F8F;" vertex="1" parent="1">
          <mxGeometry x="1620" y="1510" width="20" height="20" as="geometry" />
        </mxCell>
        <mxCell id="yZXDlxgTFXs7Cdc_VBDP-48" value="" style="endArrow=oval;html=1;rounded=0;endFill=0;fontColor=#FFFFFF;strokeColor=#000000;labelBackgroundColor=#757575;" edge="1" parent="1" target="yZXDlxgTFXs7Cdc_VBDP-49">
          <mxGeometry width="50" height="50" relative="1" as="geometry">
            <mxPoint x="1660" y="1550" as="sourcePoint" />
            <mxPoint x="1660" y="1470" as="targetPoint" />
          </mxGeometry>
        </mxCell>
        <mxCell id="yZXDlxgTFXs7Cdc_VBDP-49" value="&lt;font style=&quot;font-size: 7px;&quot;&gt;Costo&lt;/font&gt;" style="text;html=1;strokeColor=none;fillColor=none;align=center;verticalAlign=middle;whiteSpace=wrap;rounded=0;" vertex="1" parent="1">
          <mxGeometry x="1630" y="1460" width="60" height="30" as="geometry" />
        </mxCell>
        <mxCell id="yZXDlxgTFXs7Cdc_VBDP-52" value="Tratte Rifiutate" style="rounded=0;whiteSpace=wrap;html=1;" vertex="1" parent="1">
          <mxGeometry x="1590" y="1720" width="120" height="60" as="geometry" />
        </mxCell>
        <mxCell id="yZXDlxgTFXs7Cdc_VBDP-53" value="" style="endArrow=oval;html=1;rounded=0;exitX=0.417;exitY=0;exitDx=0;exitDy=0;endFill=1;exitPerimeter=0;" edge="1" parent="1" target="yZXDlxgTFXs7Cdc_VBDP-54">
          <mxGeometry width="50" height="50" relative="1" as="geometry">
            <mxPoint x="1600" y="1720" as="sourcePoint" />
            <mxPoint x="1600" y="1650" as="targetPoint" />
          </mxGeometry>
        </mxCell>
        <mxCell id="yZXDlxgTFXs7Cdc_VBDP-54" value="&lt;font style=&quot;font-size: 7px;&quot;&gt;ID_Tratta&lt;br&gt;&lt;/font&gt;" style="text;html=1;strokeColor=none;fillColor=none;align=center;verticalAlign=middle;whiteSpace=wrap;rounded=0;" vertex="1" parent="1">
          <mxGeometry x="1570" y="1630" width="60" height="30" as="geometry" />
        </mxCell>
        <mxCell id="yZXDlxgTFXs7Cdc_VBDP-55" value="" style="endArrow=oval;html=1;rounded=0;exitX=0.5;exitY=0;exitDx=0;exitDy=0;endFill=1;fontColor=#FFFFFF;strokeColor=#000000;labelBackgroundColor=#757575;" edge="1" parent="1" target="yZXDlxgTFXs7Cdc_VBDP-56">
          <mxGeometry width="50" height="50" relative="1" as="geometry">
            <mxPoint x="1630" y="1720" as="sourcePoint" />
            <mxPoint x="1630" y="1670" as="targetPoint" />
          </mxGeometry>
        </mxCell>
        <mxCell id="yZXDlxgTFXs7Cdc_VBDP-56" value="&lt;font style=&quot;font-size: 7px;&quot;&gt;ID_Richiesta&lt;/font&gt;" style="text;html=1;strokeColor=none;fillColor=none;align=center;verticalAlign=middle;whiteSpace=wrap;rounded=0;" vertex="1" parent="1">
          <mxGeometry x="1600" y="1660" width="60" height="30" as="geometry" />
        </mxCell>
        <mxCell id="yZXDlxgTFXs7Cdc_VBDP-57" value="" style="shape=waypoint;sketch=0;fillStyle=solid;size=6;pointerEvents=1;points=[];fillColor=none;resizable=0;rotatable=0;perimeter=centerPerimeter;snapToPoint=1;strokeColor=#8F8F8F;" vertex="1" parent="1">
          <mxGeometry x="1620" y="1680" width="20" height="20" as="geometry" />
        </mxCell>
        <mxCell id="yZXDlxgTFXs7Cdc_VBDP-58" value="" style="endArrow=oval;html=1;rounded=0;endFill=0;fontColor=#FFFFFF;strokeColor=#000000;labelBackgroundColor=#757575;" edge="1" parent="1" target="yZXDlxgTFXs7Cdc_VBDP-59">
          <mxGeometry width="50" height="50" relative="1" as="geometry">
            <mxPoint x="1660" y="1720" as="sourcePoint" />
            <mxPoint x="1660" y="1640" as="targetPoint" />
          </mxGeometry>
        </mxCell>
        <mxCell id="yZXDlxgTFXs7Cdc_VBDP-59" value="&lt;font style=&quot;font-size: 7px;&quot;&gt;Motivazione&lt;/font&gt;" style="text;html=1;strokeColor=none;fillColor=none;align=center;verticalAlign=middle;whiteSpace=wrap;rounded=0;" vertex="1" parent="1">
          <mxGeometry x="1630" y="1630" width="60" height="30" as="geometry" />
        </mxCell>
        <mxCell id="yZXDlxgTFXs7Cdc_VBDP-62" style="edgeStyle=orthogonalEdgeStyle;rounded=0;orthogonalLoop=1;jettySize=auto;html=1;entryX=0.4;entryY=1;entryDx=0;entryDy=0;entryPerimeter=0;" edge="1" parent="1" source="yZXDlxgTFXs7Cdc_VBDP-52" target="yZXDlxgTFXs7Cdc_VBDP-26">
          <mxGeometry relative="1" as="geometry" />
        </mxCell>
        <mxCell id="yZXDlxgTFXs7Cdc_VBDP-63" value="" style="shape=waypoint;sketch=0;fillStyle=solid;size=6;pointerEvents=1;points=[];fillColor=none;resizable=0;rotatable=0;perimeter=centerPerimeter;snapToPoint=1;strokeColor=#8F8F8F;" vertex="1" parent="1">
          <mxGeometry x="1640" y="1060" width="20" height="20" as="geometry" />
        </mxCell>
        <mxCell id="yZXDlxgTFXs7Cdc_VBDP-64" value="Info Patente" style="rounded=0;whiteSpace=wrap;html=1;" vertex="1" parent="1">
          <mxGeometry x="1640" y="700" width="120" height="60" as="geometry" />
        </mxCell>
        <mxCell id="yZXDlxgTFXs7Cdc_VBDP-65" value="" style="endArrow=oval;html=1;rounded=0;exitX=0.417;exitY=0;exitDx=0;exitDy=0;endFill=1;exitPerimeter=0;" edge="1" parent="1" target="yZXDlxgTFXs7Cdc_VBDP-66">
          <mxGeometry width="50" height="50" relative="1" as="geometry">
            <mxPoint x="1650" y="700" as="sourcePoint" />
            <mxPoint x="1650" y="630" as="targetPoint" />
          </mxGeometry>
        </mxCell>
        <mxCell id="yZXDlxgTFXs7Cdc_VBDP-66" value="&lt;font style=&quot;font-size: 7px;&quot;&gt;Numero patente&lt;/font&gt;" style="text;html=1;strokeColor=none;fillColor=none;align=center;verticalAlign=middle;whiteSpace=wrap;rounded=0;" vertex="1" parent="1">
          <mxGeometry x="1620" y="610" width="60" height="30" as="geometry" />
        </mxCell>
        <mxCell id="yZXDlxgTFXs7Cdc_VBDP-67" value="" style="endArrow=oval;html=1;rounded=0;exitX=0.5;exitY=0;exitDx=0;exitDy=0;endFill=0;fontColor=#FFFFFF;strokeColor=#000000;labelBackgroundColor=#757575;" edge="1" parent="1" target="yZXDlxgTFXs7Cdc_VBDP-68">
          <mxGeometry width="50" height="50" relative="1" as="geometry">
            <mxPoint x="1670" y="700" as="sourcePoint" />
            <mxPoint x="1670" y="650" as="targetPoint" />
          </mxGeometry>
        </mxCell>
        <mxCell id="yZXDlxgTFXs7Cdc_VBDP-68" value="&lt;font style=&quot;font-size: 7px;&quot;&gt;DDS&lt;/font&gt;" style="text;html=1;strokeColor=none;fillColor=none;align=center;verticalAlign=middle;whiteSpace=wrap;rounded=0;" vertex="1" parent="1">
          <mxGeometry x="1640" y="640" width="60" height="30" as="geometry" />
        </mxCell>
        <mxCell id="yZXDlxgTFXs7Cdc_VBDP-69" value="" style="endArrow=oval;html=1;rounded=0;exitX=0.417;exitY=0;exitDx=0;exitDy=0;endFill=0;exitPerimeter=0;" edge="1" parent="1" target="yZXDlxgTFXs7Cdc_VBDP-70">
          <mxGeometry width="50" height="50" relative="1" as="geometry">
            <mxPoint x="1710" y="700" as="sourcePoint" />
            <mxPoint x="1710" y="630" as="targetPoint" />
          </mxGeometry>
        </mxCell>
        <mxCell id="yZXDlxgTFXs7Cdc_VBDP-70" value="&lt;font style=&quot;font-size: 7px;&quot;&gt;Categoria&lt;/font&gt;" style="text;html=1;strokeColor=none;fillColor=none;align=center;verticalAlign=middle;whiteSpace=wrap;rounded=0;" vertex="1" parent="1">
          <mxGeometry x="1680" y="610" width="60" height="30" as="geometry" />
        </mxCell>
        <mxCell id="yZXDlxgTFXs7Cdc_VBDP-71" value="&lt;font style=&quot;font-size: 7px;&quot;&gt;Possedere&lt;/font&gt;" style="rhombus;whiteSpace=wrap;html=1;align=center;" vertex="1" parent="1">
          <mxGeometry x="1670" y="840" width="60" height="40" as="geometry" />
        </mxCell>
        <mxCell id="yZXDlxgTFXs7Cdc_VBDP-72" value="" style="endArrow=none;html=1;rounded=0;exitX=0.5;exitY=1;exitDx=0;exitDy=0;entryX=0.5;entryY=0;entryDx=0;entryDy=0;" edge="1" parent="1" source="yZXDlxgTFXs7Cdc_VBDP-64" target="yZXDlxgTFXs7Cdc_VBDP-71">
          <mxGeometry relative="1" as="geometry">
            <mxPoint x="1640" y="820" as="sourcePoint" />
            <mxPoint x="1800" y="820" as="targetPoint" />
          </mxGeometry>
        </mxCell>
        <mxCell id="yZXDlxgTFXs7Cdc_VBDP-73" value="1,1" style="resizable=0;html=1;whiteSpace=wrap;align=right;verticalAlign=bottom;" connectable="0" vertex="1" parent="yZXDlxgTFXs7Cdc_VBDP-72">
          <mxGeometry x="1" relative="1" as="geometry" />
        </mxCell>
        <mxCell id="yZXDlxgTFXs7Cdc_VBDP-74" value="" style="endArrow=none;html=1;rounded=0;entryX=0.5;entryY=1;entryDx=0;entryDy=0;exitX=0.75;exitY=0;exitDx=0;exitDy=0;" edge="1" parent="1" source="m7EIwp2qNDk-36-i3Lt1-24" target="yZXDlxgTFXs7Cdc_VBDP-71">
          <mxGeometry relative="1" as="geometry">
            <mxPoint x="1590" y="960" as="sourcePoint" />
            <mxPoint x="1750" y="960" as="targetPoint" />
          </mxGeometry>
        </mxCell>
        <mxCell id="yZXDlxgTFXs7Cdc_VBDP-75" value="1,1" style="resizable=0;html=1;whiteSpace=wrap;align=right;verticalAlign=bottom;" connectable="0" vertex="1" parent="yZXDlxgTFXs7Cdc_VBDP-74">
          <mxGeometry x="1" relative="1" as="geometry">
            <mxPoint y="20" as="offset" />
          </mxGeometry>
        </mxCell>
        <mxCell id="yZXDlxgTFXs7Cdc_VBDP-76" value="Avere" style="rhombus;whiteSpace=wrap;html=1;align=center;" vertex="1" parent="1">
          <mxGeometry x="1439.49" y="1560" width="60" height="40" as="geometry" />
        </mxCell>
        <mxCell id="yZXDlxgTFXs7Cdc_VBDP-77" value="" style="endArrow=none;html=1;rounded=0;entryX=0;entryY=0.5;entryDx=0;entryDy=0;exitX=1;exitY=0.5;exitDx=0;exitDy=0;" edge="1" parent="1" source="zgEXHdy59-02v655x-aA-15" target="yZXDlxgTFXs7Cdc_VBDP-76">
          <mxGeometry relative="1" as="geometry">
            <mxPoint x="1370" y="1580" as="sourcePoint" />
            <mxPoint x="1410" y="1580" as="targetPoint" />
          </mxGeometry>
        </mxCell>
        <mxCell id="yZXDlxgTFXs7Cdc_VBDP-78" value="1,1" style="resizable=0;html=1;whiteSpace=wrap;align=right;verticalAlign=bottom;" connectable="0" vertex="1" parent="yZXDlxgTFXs7Cdc_VBDP-77">
          <mxGeometry x="1" relative="1" as="geometry" />
        </mxCell>
        <mxCell id="yZXDlxgTFXs7Cdc_VBDP-79" value="" style="endArrow=none;html=1;rounded=0;entryX=1;entryY=0.5;entryDx=0;entryDy=0;exitX=0;exitY=0.5;exitDx=0;exitDy=0;" edge="1" parent="1" source="yZXDlxgTFXs7Cdc_VBDP-42" target="yZXDlxgTFXs7Cdc_VBDP-76">
          <mxGeometry relative="1" as="geometry">
            <mxPoint x="1580" y="1580" as="sourcePoint" />
            <mxPoint x="1570" y="1630" as="targetPoint" />
          </mxGeometry>
        </mxCell>
        <mxCell id="yZXDlxgTFXs7Cdc_VBDP-80" value="1,1" style="resizable=0;html=1;whiteSpace=wrap;align=right;verticalAlign=bottom;" connectable="0" vertex="1" parent="yZXDlxgTFXs7Cdc_VBDP-79">
          <mxGeometry x="1" relative="1" as="geometry">
            <mxPoint x="10" as="offset" />
          </mxGeometry>
        </mxCell>
        <mxCell id="yZXDlxgTFXs7Cdc_VBDP-81" value="" style="endArrow=none;html=1;rounded=0;exitX=0.5;exitY=1;exitDx=0;exitDy=0;entryX=1;entryY=0.5;entryDx=0;entryDy=0;" edge="1" parent="1" source="VP--jvnIrPfgmcB4H4c5-112" target="VP--jvnIrPfgmcB4H4c5-100">
          <mxGeometry relative="1" as="geometry">
            <mxPoint x="1960" y="1790" as="sourcePoint" />
            <mxPoint x="2120" y="1790" as="targetPoint" />
            <Array as="points">
              <mxPoint x="1970" y="1870" />
            </Array>
          </mxGeometry>
        </mxCell>
        <mxCell id="yZXDlxgTFXs7Cdc_VBDP-82" value="1,1" style="resizable=0;html=1;whiteSpace=wrap;align=right;verticalAlign=bottom;" connectable="0" vertex="1" parent="yZXDlxgTFXs7Cdc_VBDP-81">
          <mxGeometry x="1" relative="1" as="geometry">
            <mxPoint x="50" y="-100" as="offset" />
          </mxGeometry>
        </mxCell>
      </root>
    </mxGraphModel>
  </diagram>
</mxfile>
